<svg width="38" height="24" viewBox="0 0 38 24" fill="none" xmlns="http://www.w3.org/2000/svg">
<rect width="37.9099" height="24" rx="4" fill="#171717"/>
<path d="M22.4583 5.71216H15.4531V18.2841H22.4583V5.71216Z" fill="#FF5F00"/>
<path d="M15.898 11.9981C15.898 9.55483 17.0322 7.22258 18.9447 5.71217C15.4755 2.9801 10.4496 3.57982 7.71423 7.0671C4.97887 10.5322 5.57932 15.5521 9.07078 18.2841C11.984 20.572 16.0537 20.572 18.967 18.2841C17.0322 16.7737 15.898 14.4415 15.898 11.9981Z" fill="#EB001B"/>
<path d="M31.9097 11.9981C31.9097 16.4183 28.3293 19.9944 23.9038 19.9944C22.1024 19.9944 20.3678 19.3947 18.9668 18.2841C22.436 15.5521 23.0365 10.5322 20.3011 7.04488C19.9008 6.55622 19.456 6.08977 18.9668 5.71217C22.436 2.9801 27.4842 3.57982 30.1973 7.0671C31.3092 8.46645 31.9097 10.199 31.9097 11.9981Z" fill="#F79E1B"/>
<path d="M31.1537 16.9513V16.6848H31.2649V16.6404H30.998V16.6848H31.1092V16.9513H31.1537ZM31.6652 16.9513V16.6404H31.5763L31.4873 16.8625L31.3983 16.6404H31.3094V16.9513H31.3761V16.707L31.4651 16.9069H31.5318L31.6207 16.707V16.9513H31.6652Z" fill="#F79E1B"/>
</svg>
